<svg width="72" height="72" viewBox="0 0 72 72" fill="none" xmlns="http://www.w3.org/2000/svg">
<path d="M0 36C0 16.1177 16.1177 0 36 0V0C55.8823 0 72 16.1177 72 36V36C72 55.8823 55.8823 72 36 72V72C16.1177 72 0 55.8823 0 36V36Z" fill="#E74040"/>
<g clip-path="url(#clip0_427_3153)">
<g clip-path="url(#clip1_427_3153)">
<path d="M26.3481 52.0003H45.6513C46.8 52.0003 47.7562 51.1217 47.7562 50.0421V26.6288C47.7562 25.5489 46.8 24.6611 45.6513 24.6611H42.4692V26.4489C42.4739 26.7592 42.229 27.016 41.919 27.0264H30.0426C29.7263 27.0187 29.4709 26.7652 29.4606 26.4489V24.6611H26.3481C25.1994 24.6611 24.2432 25.5489 24.2432 26.6288V50.0421C24.2432 51.1217 25.1994 52.0003 26.3481 52.0003ZM30.6432 34.0524C30.6432 33.7451 30.8923 33.4959 31.1997 33.4959H34.0519V30.6437C34.0519 30.3364 34.301 30.0872 34.6084 30.0872H37.391C37.6983 30.0872 37.9475 30.3364 37.9475 30.6437V33.4959H40.7997C41.107 33.4959 41.3562 33.7451 41.3562 34.0524V36.835C41.3562 37.1424 41.107 37.3916 40.7997 37.3916H37.9475V40.2437C37.9475 40.5511 37.6983 40.8003 37.391 40.8003H34.6084C34.301 40.8003 34.0519 40.5511 34.0519 40.2437V37.3916H31.1997C30.8923 37.3916 30.6432 37.1424 30.6432 36.835V34.0524ZM30.8698 43.6524H41.1296C41.4372 43.6524 41.6861 43.9016 41.6861 44.209C41.6861 44.5163 41.4372 44.7655 41.1296 44.7655H30.8698C30.5622 44.7655 30.3133 44.5163 30.3133 44.209C30.3133 43.9016 30.5622 43.6524 30.8698 43.6524ZM28.7828 46.435H43.2165C43.5241 46.435 43.7731 46.6842 43.7731 46.9916C43.7731 47.2989 43.5241 47.5481 43.2165 47.5481H28.7828C28.4752 47.5481 28.2263 47.2989 28.2263 46.9916C28.2263 46.6842 28.4752 46.435 28.7828 46.435Z" fill="white"/>
<path d="M41.3568 22.1565H38.7525C38.4905 22.1563 38.2639 21.9734 38.2087 21.7171C37.9935 20.7226 37.0489 20 35.9625 20H35.9557C34.8984 19.9989 33.9748 20.7144 33.7117 21.7383C33.6484 21.9842 33.4267 22.1563 33.1726 22.1565H30.5742V25.913H41.3568V22.1565Z" fill="white"/>
<path d="M35.1655 36.835V39.6872H36.8351V36.835C36.8351 36.5276 37.0843 36.2785 37.3916 36.2785H40.2438V34.6089H37.3916C37.0843 34.6089 36.8351 34.3597 36.8351 34.0524V31.2002H35.1655V34.0524C35.1655 34.3597 34.9163 34.6089 34.609 34.6089H31.7568V36.2785H34.609C34.9163 36.2785 35.1655 36.5276 35.1655 36.835Z" fill="white"/>
</g>
</g>
<defs>
<clipPath id="clip0_427_3153">
<rect width="32" height="32" fill="white" transform="translate(20 20)"/>
</clipPath>
<clipPath id="clip1_427_3153">
<rect width="32" height="32" fill="white" transform="translate(20 20)"/>
</clipPath>
</defs>
</svg>
