<svg width="9" height="17" viewBox="0 0 9 17" fill="none" xmlns="http://www.w3.org/2000/svg">
<path fill-rule="evenodd" clip-rule="evenodd" d="M0.180771 0.486435C0.237928 0.429133 0.305828 0.383671 0.380583 0.352651C0.455337 0.321631 0.535477 0.305664 0.616412 0.305664C0.697347 0.305664 0.777487 0.321631 0.852241 0.352651C0.926996 0.383671 0.994896 0.429133 1.05205 0.486435L8.4358 7.87018C8.4931 7.92734 8.53857 7.99524 8.56959 8.07C8.60061 8.14475 8.61657 8.22489 8.61657 8.30583C8.61657 8.38676 8.60061 8.4669 8.56959 8.54165C8.53857 8.61641 8.4931 8.68431 8.4358 8.74147L1.05205 16.1252C0.936514 16.2408 0.779809 16.3057 0.616412 16.3057C0.453015 16.3057 0.29631 16.2408 0.180771 16.1252C0.0652316 16.0097 0.000322157 15.853 0.000322157 15.6896C0.000322157 15.5262 0.0652316 15.3695 0.180771 15.2539L7.13011 8.30583L0.180771 1.35772C0.123469 1.30056 0.078006 1.23266 0.0469863 1.15791C0.0159666 1.08315 0 1.00301 0 0.922076C0 0.841142 0.0159666 0.761002 0.0469863 0.686247C0.078006 0.611493 0.123469 0.543593 0.180771 0.486435V0.486435Z" fill="#FF685B"/>
</svg>
